<svg id="Layer_1" data-name="Layer 1" xmlns="http://www.w3.org/2000/svg" xmlns:xlink="http://www.w3.org/1999/xlink" viewBox="0 0 720 720"><defs><style>.cls-1{fill:#fff;}.cls-2{fill:url(#linear-gradient);}.cls-3{fill:url(#linear-gradient-2);}.cls-4{fill:url(#linear-gradient-3);}</style><linearGradient id="linear-gradient" x1="0.42" y1="393.83" x2="163.92" y2="341.94" gradientUnits="userSpaceOnUse"><stop offset="0" stop-color="#0fe"/><stop offset="0.51" stop-color="#0062ff"/><stop offset="1" stop-color="#9c00ff"/></linearGradient><linearGradient id="linear-gradient-2" x1="153.79" y1="305.18" x2="207.1" y2="400.32" xlink:href="#linear-gradient"/><linearGradient id="linear-gradient-3" x1="115.24" y1="423.62" x2="188.19" y2="376.43" xlink:href="#linear-gradient"/></defs><rect width="720" height="720"/><path class="cls-1" d="M254.87,338.17a26.55,26.55,0,0,0-18.3-6.7,27.38,27.38,0,0,0-20.27,8.24c-5.38,5.47-8.11,12.41-8.11,20.63a28.55,28.55,0,0,0,8.1,20.68,27.33,27.33,0,0,0,20.28,8.29,26.45,26.45,0,0,0,18.05-6.57l.87,5.3H266.3v-55.3H255.9Zm-17.48,38.45A15.25,15.25,0,0,1,225.94,372h0a15.74,15.74,0,0,1-4.55-11.61,16.85,16.85,0,0,1,2.08-8.33,15.15,15.15,0,0,1,5.71-5.8,16.15,16.15,0,0,1,8.16-2.1,15.09,15.09,0,0,1,11.4,4.56,15.83,15.83,0,0,1,4.46,11.62A16,16,0,0,1,248.74,372,15,15,0,0,1,237.39,376.62Z"/><path class="cls-1" d="M316.16,367.1a15.71,15.71,0,0,1-5.72,7.06,15.1,15.1,0,0,1-8.49,2.46A14.19,14.19,0,0,1,291.1,372a16,16,0,0,1-4.42-11.58,17.12,17.12,0,0,1,2-8.33,15,15,0,0,1,5.52-5.8,14.82,14.82,0,0,1,7.72-2.1,15.58,15.58,0,0,1,8.56,2.42,15,15,0,0,1,5.65,6.62l.31.68h12.8l-.32-1.41a26.46,26.46,0,0,0-9.59-15.26,29.08,29.08,0,0,0-37.68,2.55,30,30,0,0,0,0,41.21,27.95,27.95,0,0,0,47.47-13.15l.33-1.41h-13Z"/><path class="cls-1" d="M374.29,367.1a15.75,15.75,0,0,1-5.71,7.06,15.15,15.15,0,0,1-8.5,2.46A14.22,14.22,0,0,1,349.23,372a16.07,16.07,0,0,1-4.42-11.58,17.23,17.23,0,0,1,2-8.33,15.06,15.06,0,0,1,5.53-5.8,14.78,14.78,0,0,1,7.71-2.1,15.53,15.53,0,0,1,8.56,2.42,15,15,0,0,1,5.66,6.62l.3.68h12.81l-.33-1.41a26.41,26.41,0,0,0-9.59-15.26,29.08,29.08,0,0,0-37.68,2.55,30,30,0,0,0,0,41.21,27.94,27.94,0,0,0,47.46-13.15l.34-1.41h-13Z"/><path class="cls-1" d="M432.25,335.42a27.11,27.11,0,0,0-14.51-3.95,26.77,26.77,0,0,0-20,8.3c-5.3,5.49-8,12.43-8,20.62s2.69,15.13,8,20.62a26.77,26.77,0,0,0,20,8.3,27.38,27.38,0,0,0,16.11-5,28.21,28.21,0,0,0,10.26-13.74l.57-1.54H431.06l-.32.59a13.2,13.2,0,0,1-3.16,3.85,14.29,14.29,0,0,1-4.42,2.45,16.78,16.78,0,0,1-5.42.87,14.16,14.16,0,0,1-14.56-11.56h42l.09-1c.13-1.47.2-2.73.2-3.73A31.29,31.29,0,0,0,442,346,26.9,26.9,0,0,0,432.25,335.42Zm-14.51,8.15a15.73,15.73,0,0,1,6.7,1.41,13.73,13.73,0,0,1,5,4.08,16.56,16.56,0,0,1,2.59,5.08H403.48a14.87,14.87,0,0,1,4.79-7.39A14.54,14.54,0,0,1,417.74,343.57Z"/><rect class="cls-1" x="452.61" y="313.7" width="13.01" height="74.33"/><path class="cls-1" d="M514.22,332.74,499.4,368l-15.74-35.27H469.45l23.22,50.32-.94,2c-1.85,4.14-3.54,6.88-5,8.14S483,395,479.93,395h-5.59v12.11h6.46c5.46,0,9.92-1.43,13.24-4.25s6.45-7.62,9.53-14.49l24.66-55.6Z"/><polygon class="cls-1" points="570.69 335.88 570.69 332.74 528.61 332.74 528.61 345.04 551 345.04 526.68 385.2 526.68 388.04 570.78 388.04 570.78 375.64 546.57 375.64 570.69 335.88"/><path class="cls-1" d="M624.93,346a27.85,27.85,0,0,0-44.28-6.2c-5.31,5.49-8,12.43-8,20.62s2.69,15.13,8,20.62a26.75,26.75,0,0,0,20,8.3,27.38,27.38,0,0,0,16.11-5A28.29,28.29,0,0,0,627,370.6l.56-1.54H614l-.33.59a13.33,13.33,0,0,1-3.15,3.85,14.46,14.46,0,0,1-4.43,2.45,16.73,16.73,0,0,1-5.42.87,14.16,14.16,0,0,1-14.56-11.56h42l.09-1c.13-1.47.2-2.73.2-3.73A31.29,31.29,0,0,0,624.93,346Zm-24.29-2.4a15.77,15.77,0,0,1,6.71,1.41,13.7,13.7,0,0,1,5,4.08,16.56,16.56,0,0,1,2.59,5.08H586.38a14.89,14.89,0,0,1,4.8-7.39A14.5,14.5,0,0,1,600.64,343.57Z"/><path class="cls-2" d="M109.38,398.25l62.09-85.33H134.1a10.56,10.56,0,0,0-8.64,4.48L93.71,362.47a11.2,11.2,0,0,0-.09,12.79Z"/><path class="cls-3" d="M190.63,330.44l-9.19-13a10.56,10.56,0,0,0-8.63-4.48H135.44l34,46.69Z"/><polygon class="cls-4" points="169.41 359.61 140.74 399.01 169.41 399.01 198.08 399.01 169.41 359.61"/></svg>