<?xml version="1.0" encoding="UTF-8"?><svg id="a" xmlns="http://www.w3.org/2000/svg" width="252.664" height="52.14" xmlns:xlink="http://www.w3.org/1999/xlink" viewBox="0 0 252.664 52.14"><defs><linearGradient id="b" x1="2.37" y1="39.55" x2="49.783" y2="39.55" gradientUnits="userSpaceOnUse"><stop offset=".1" stop-color="navy"/><stop offset=".4" stop-color="#2f51d7"/><stop offset=".9" stop-color="#3bb8f7"/></linearGradient><linearGradient id="c" x1="10.3" y1="39.052" x2="10.3" y2="13.088" gradientUnits="userSpaceOnUse"><stop offset=".1" stop-color="#3bb8f7"/><stop offset=".611" stop-color="#2f51d7"/><stop offset=".9" stop-color="navy"/></linearGradient><linearGradient id="d" x1="2.37" y1="12.59" x2="49.783" y2="12.59" gradientUnits="userSpaceOnUse"><stop offset=".1" stop-color="#3bb8f7"/><stop offset=".6" stop-color="#2f51d7"/><stop offset=".9" stop-color="navy"/></linearGradient></defs><path d="m144.613,14.705h6.497c1.12,5.01,2.243,10.032,3.366,15.053.078.003.156.006.234.01,1.385-4.877,2.771-9.754,4.179-14.711h5.358c1.391,4.734,2.804,9.54,4.217,14.346.093,0,.186,0,.28-.001,1.093-4.894,2.187-9.788,3.286-14.708h6.456c-.113.481-.187.891-.305,1.288-2.04,6.856-4.085,13.709-6.128,20.564-.383,1.284-.616,1.481-1.919,1.497-1.352.016-2.705.004-4.156.004-1.463-4.921-2.905-9.774-4.347-14.627-.077-.006-.155-.013-.232-.019-1.395,4.829-2.79,9.658-4.232,14.647-1.037,0-2.061-.015-3.084.003-3.048.054-2.631-.171-3.333-2.501-2.004-6.659-3.958-13.334-5.929-20.003-.066-.224-.112-.455-.206-.841Z" /><path d="m128.696,38.51c-3.313-.073-6.976-1.548-9.463-5.218-4.902-7.23-.987-16.896,7.557-18.781,2.508-.553,4.994-.483,7.451.255,4.598,1.382,7.87,5.269,8.314,10.19.375,4.16-.748,7.747-3.993,10.485-2.532,2.136-5.53,3.109-9.865,3.068Zm7.553-12.315c-.066-.452-.108-1.051-.247-1.627-.721-2.979-2.797-4.955-6.007-4.994-2.899-.035-5.3,1.652-6.126,4.712-.336,1.244-.367,2.517-.079,3.778.524,2.295,1.816,3.968,4.104,4.712,2.247.731,4.343.376,6.138-1.202,1.568-1.378,2.093-3.228,2.217-5.379Z" /><path d="m115.227,37.972c-.441.037-.675.073-.908.074-1.914.005-3.827.003-5.838.003-1.365-2.484-2.721-4.95-4.099-7.456h-3.137v7.379h-5.946c-.021-.357-.06-.704-.06-1.051-.004-6.769-.005-13.539-.001-20.308,0-1.58.384-1.973,1.986-1.965,2.755.013,5.512-.002,8.263.106,1.872.073,3.603.699,5.036,1.954,3.044,2.667,3.359,7.583.705,10.662-.468.543-.936,1.085-1.525,1.768,1.724,2.758,3.569,5.709,5.524,8.835Zm-13.98-12.016c1.315.011,2.543.199,3.736-.243,1.358-.504,2.012-1.552,2.008-3.18-.004-1.571-.64-2.616-1.97-3.071-1.215-.415-2.47-.473-3.774-.255v6.748Z" /><path d="m203.639,37.969c-.024-.455-.063-.843-.064-1.231-.004-6.693-.003-13.386-.003-20.079,0-.279-.014-.561.024-.835.097-.711.436-1.041,1.162-1.152.196-.03.398-.028.598-.028,4.555-.001,9.11-.002,13.666.002.234,0,.469.042.85.079.077,1.473.034,2.925.023,4.558-3.541.049-7.031-.005-10.602.031v4.419c.966.267,2,.078,3.016.112.998.034,1.998.007,2.997.007h3.187v4.7h-9.207v4.779c3.587.146,7.202-.015,10.912.088v4.549h-16.559Z" /><path d="m89.497,16.132c-.33,1.696-.653,3.36-.961,4.939-1.475-.415-2.829-.936-4.229-1.145-1.199-.179-2.485-.173-3.675.052-3.792.719-5.334,3.703-4.984,7.145.37,3.64,2.849,5.741,6.532,5.817,1.92.039,3.71-.444,5.459-1.16.404-.165.8-.348,1.376-.6.234,1.789.457,3.497.686,5.248-1.393.966-2.981,1.356-4.576,1.664-2.875.556-5.717.407-8.497-.584-4.437-1.583-6.838-4.724-7.352-9.38-.231-2.096-.093-4.145.594-6.125,1.004-2.894,2.983-4.979,5.743-6.262,4.299-1.998,8.651-1.899,12.994-.09.287.12.55.296.89.482Z" /><path d="m238.207,37.948c-.408.043-.678.094-.949.095-1.674.008-3.348.004-5.157.004-.027-.469-.067-.848-.068-1.226-.006-2.431-.022-4.863.009-7.294.009-.707-.156-1.309-.526-1.911-2.401-3.903-4.779-7.82-7.161-11.734-.202-.332-.383-.676-.624-1.103.338-.059.56-.13.781-.131,1.559-.01,3.119.016,4.677-.015.903-.018,1.477.314,1.885,1.155,1.06,2.185,2.196,4.333,3.306,6.493.253.492.524.975.863,1.603.61-1.169,1.164-2.219,1.707-3.275.819-1.592,1.662-3.173,2.433-4.789.393-.824.942-1.211,1.864-1.189,1.518.037,3.038.006,4.557.014.229.001.457.057.795.102-.307.52-.562.964-.829,1.401-2.348,3.84-4.692,7.684-7.057,11.514-.371.6-.529,1.204-.519,1.911.032,2.391.012,4.783.012,7.175v1.198Z" /><path d="m198.791,37.978c-.338.025-.647.067-.956.067-4.391.004-8.783.003-13.174.002-.239,0-.482.009-.717-.024-.783-.107-1.133-.458-1.225-1.226-.028-.236-.014-.477-.014-.716,0-6.727,0-13.454,0-20.18,0-.352,0-.705,0-1.213,2.099-.087,4.109-.039,6.243-.034v18.237c1.16.3,2.231.126,3.286.155,1.077.03,2.156.007,3.233.007s2.152,0,3.325,0v4.925Z" /><path d="m252.664,16.389c0,1.115-.876,1.991-2.016,1.991-1.127,0-2.026-.875-2.026-1.991,0-1.091.899-1.967,2.026-1.967,1.14,0,2.016.875,2.016,1.967Zm-3.538,0c0,.875.647,1.571,1.535,1.571.863,0,1.499-.696,1.499-1.56,0-.875-.636-1.583-1.512-1.583s-1.522.708-1.522,1.571Zm1.211,1.031h-.456v-1.967c.181-.036.432-.06.756-.06.372,0,.54.06.684.144.108.084.192.24.192.432,0,.216-.168.384-.408.456v.024c.192.072.3.216.359.479.061.3.097.42.145.492h-.492c-.06-.072-.096-.252-.155-.479-.036-.216-.156-.312-.408-.312h-.216v.792Zm.012-1.115h.216c.252,0,.456-.084.456-.288,0-.18-.132-.3-.42-.3-.12,0-.204.012-.252.024v.563Z" /><path d="m49.76,36.93v.01c-4.11,8.97-13.17,15.2-23.69,15.2s-19.59-6.23-23.7-15.21c1.46,1.15,3.49,2.18,6.04,2.12,4.1-.09,7.8-1.28,11.53-3.12,1.38-.67,2.76-1.44,4.16-2.28,5.21-3.1,10.72-6.69,12.5-6.69.98,0,1.29.23,2.22.8.4.24,2.02,1.17,3.86,2.24,2.5,1.44,5.41,3.15,6.26,3.76.81.58.9,2,.82,3.17Z" fill="url(#b)" /><path d="m16.9,19.62v13.24c0,1.69,1.36,3.06,3.04,3.07-3.73,1.84-7.43,3.03-11.53,3.12-2.55.06-4.58-.97-6.04-2.12-1.52-3.31-2.37-6.98-2.37-10.86s.85-7.55,2.37-10.86c1.45-1.14,3.49-2.18,6.04-2.12,4.34.1,8.24,1.43,12.19,3.46h-.64c-1.69,0-3.06,1.37-3.06,3.07Z" fill="url(#c)" /><path d="m49.76,15.2c.08,1.17-.01,2.6-.82,3.18-.85.61-3.76,2.32-6.26,3.77-1.84,1.07-3.46,1.99-3.86,2.24-.93.57-1.24.79-2.22.79-1.78,0-7.29-3.58-12.5-6.68-1.18-.7-2.34-1.36-3.5-1.95-3.95-2.03-7.85-3.36-12.19-3.46-2.55-.06-4.59.98-6.04,2.12C6.49,6.23,15.55,0,26.07,0s19.56,6.22,23.69,15.18v.02Z" fill="url(#d)" /></svg>