<?xml version="1.0" encoding="UTF-8" standalone="no"?>
<svg
   id="Layer_1"
   data-name="Layer 1"
   viewBox="0 0 550 120"
   version="1.1"
   sodipodi:docname="Accelyze-dark.svg"
   width="550"
   height="120"
   inkscape:version="1.4.2 (ebf0e940, 2025-05-08)"
   xmlns:inkscape="http://www.inkscape.org/namespaces/inkscape"
   xmlns:sodipodi="http://sodipodi.sourceforge.net/DTD/sodipodi-0.dtd"
   xmlns:xlink="http://www.w3.org/1999/xlink"
   xmlns="http://www.w3.org/2000/svg"
   xmlns:svg="http://www.w3.org/2000/svg">
  <sodipodi:namedview
     id="namedview10"
     pagecolor="#ffffff"
     bordercolor="#000000"
     borderopacity="0.25"
     inkscape:showpageshadow="2"
     inkscape:pageopacity="0.0"
     inkscape:pagecheckerboard="true"
     inkscape:deskcolor="#d1d1d1"
     inkscape:zoom="1.1555556"
     inkscape:cx="359.99999"
     inkscape:cy="359.56729"
     inkscape:window-width="2464"
     inkscape:window-height="1076"
     inkscape:window-x="28"
     inkscape:window-y="122"
     inkscape:window-maximized="0"
     inkscape:current-layer="Layer_1" />
  <defs
     id="defs3">
    <style
       id="style1">.cls-1{fill:#fff;}.cls-2{fill:url(#linear-gradient);}.cls-3{fill:url(#linear-gradient-2);}.cls-4{fill:url(#linear-gradient-3);}</style>
    <linearGradient
       id="linear-gradient"
       x1="0.41999999"
       y1="393.82999"
       x2="163.92"
       y2="341.94"
       gradientUnits="userSpaceOnUse">
      <stop
         offset="0"
         stop-color="#0fe"
         id="stop1" />
      <stop
         offset="0.51"
         stop-color="#0062ff"
         id="stop2" />
      <stop
         offset="1"
         stop-color="#9c00ff"
         id="stop3" />
    </linearGradient>
    <linearGradient
       id="linear-gradient-2"
       x1="153.78999"
       y1="305.17999"
       x2="207.10001"
       y2="400.32001"
       xlink:href="#linear-gradient"
       gradientTransform="translate(-83.076924,-295.96154)" />
    <linearGradient
       id="linear-gradient-3"
       x1="115.24"
       y1="423.62"
       x2="188.19"
       y2="376.42999"
       xlink:href="#linear-gradient" />
    <linearGradient
       inkscape:collect="always"
       xlink:href="#linear-gradient"
       id="linearGradient10"
       gradientUnits="userSpaceOnUse"
       x1="0.41999999"
       y1="393.82999"
       x2="163.92"
       y2="341.94"
       gradientTransform="translate(-83.076924,-295.96154)" />
  </defs>
  <path
     d="m 171.79308,42.208462 a 26.55,26.55 0 0 0 -18.3,-6.7 27.38,27.38 0 0 0 -20.27,8.24 c -5.38,5.47 -8.11,12.41 -8.11,20.63 a 28.55,28.55 0 0 0 8.1,20.68 27.33,27.33 0 0 0 20.28,8.29 26.45,26.45 0 0 0 18.05,-6.57 l 0.87,5.3 h 10.81 v -55.3 h -10.4 z m -17.48,38.45 a 15.25,15.25 0 0 1 -11.45,-4.62 v 0 a 15.74,15.74 0 0 1 -4.55,-11.61 16.85,16.85 0 0 1 2.08,-8.33 15.15,15.15 0 0 1 5.71,-5.8 16.15,16.15 0 0 1 8.16,-2.1 15.09,15.09 0 0 1 11.4,4.56 15.83,15.83 0 0 1 4.46,11.62 16,16 0 0 1 -4.46,11.66 15,15 0 0 1 -11.35,4.62 z"
     id="path3"
     style="fill:#ffffff;fill-opacity:1" />
  <path
     d="m 233.08308,71.138462 a 15.71,15.71 0 0 1 -5.72,7.06 15.1,15.1 0 0 1 -8.49,2.46 14.19,14.19 0 0 1 -10.85,-4.62 16,16 0 0 1 -4.42,-11.58 17.12,17.12 0 0 1 2,-8.33 15,15 0 0 1 5.52,-5.8 14.82,14.82 0 0 1 7.72,-2.1 15.58,15.58 0 0 1 8.56,2.42 15,15 0 0 1 5.65,6.62 l 0.31,0.68 h 12.8 l -0.32,-1.41 a 26.46,26.46 0 0 0 -9.59,-15.26 29.08,29.08 0 0 0 -37.68,2.55 30,30 0 0 0 0,41.21 27.95,27.95 0 0 0 47.47,-13.15 l 0.33,-1.41 h -13 z"
     id="path4"
     style="fill:#ffffff;fill-opacity:1" />
  <path
     d="m 291.21308,71.138462 a 15.75,15.75 0 0 1 -5.71,7.06 15.15,15.15 0 0 1 -8.5,2.46 14.22,14.22 0 0 1 -10.85,-4.62 16.07,16.07 0 0 1 -4.42,-11.58 17.23,17.23 0 0 1 2,-8.33 15.06,15.06 0 0 1 5.53,-5.8 14.78,14.78 0 0 1 7.71,-2.1 15.53,15.53 0 0 1 8.56,2.42 15,15 0 0 1 5.66,6.62 l 0.3,0.68 h 12.81 l -0.33,-1.41 a 26.41,26.41 0 0 0 -9.59,-15.26 29.08,29.08 0 0 0 -37.68,2.55 30,30 0 0 0 0,41.21 27.94,27.94 0 0 0 47.46,-13.15 l 0.34,-1.41 h -13 z"
     id="path5"
     style="fill:#ffffff;fill-opacity:1" />
  <path
     d="m 349.17308,39.458462 a 27.11,27.11 0 0 0 -14.51,-3.95 26.77,26.77 0 0 0 -20,8.3 c -5.3,5.49 -8,12.43 -8,20.62 0,8.19 2.69,15.13 8,20.62 a 26.77,26.77 0 0 0 20,8.3 27.38,27.38 0 0 0 16.11,-5 28.21,28.21 0 0 0 10.26,-13.74 l 0.57,-1.54 h -13.62 l -0.32,0.59 a 13.2,13.2 0 0 1 -3.16,3.85 14.29,14.29 0 0 1 -4.42,2.45 16.78,16.78 0 0 1 -5.42,0.87 14.16,14.16 0 0 1 -14.56,-11.56 h 42 l 0.09,-1 c 0.13,-1.47 0.2,-2.73 0.2,-3.73 a 31.29,31.29 0 0 0 -3.47,-14.5 26.9,26.9 0 0 0 -9.75,-10.58 z m -14.51,8.15 a 15.73,15.73 0 0 1 6.7,1.41 13.73,13.73 0 0 1 5,4.08 16.56,16.56 0 0 1 2.59,5.08 h -28.55 a 14.87,14.87 0 0 1 4.79,-7.39 14.54,14.54 0 0 1 9.47,-3.18 z"
     id="path6"
     style="fill:#ffffff;fill-opacity:1" />
  <rect
     x="369.53308"
     y="17.738472"
     width="13.01"
     height="74.330002"
     id="rect6"
     style="fill:#ffffff;fill-opacity:1" />
  <path
     d="m 431.14308,36.778462 -14.82,35.26 -15.74,-35.27 h -14.21 l 23.22,50.32 -0.94,2 c -1.85,4.14 -3.54,6.88 -5,8.14 -1.46,1.259999 -3.73,1.809999 -6.8,1.809999 h -5.59 v 12.109999 h 6.46 c 5.46,0 9.92,-1.43 13.24,-4.25 3.32,-2.82 6.45,-7.619999 9.53,-14.489998 l 24.66,-55.6 z"
     id="path7"
     style="fill:#ffffff;fill-opacity:1" />
  <polygon
     points="570.78,375.64 546.57,375.64 570.69,335.88 570.69,332.74 528.61,332.74 528.61,345.04 551,345.04 526.68,385.2 526.68,388.04 570.78,388.04 "
     id="polygon7"
     transform="translate(-83.076924,-295.96154)"
     style="fill:#ffffff;fill-opacity:1" />
  <path
     d="m 541.85308,50.038462 a 27.85,27.85 0 0 0 -44.28,-6.2 c -5.31,5.49 -8,12.43 -8,20.62 0,8.19 2.69,15.13 8,20.62 a 26.75,26.75 0 0 0 20,8.3 27.38,27.38 0 0 0 16.11,-5 28.29,28.29 0 0 0 10.24,-13.74 l 0.56,-1.54 h -13.56 l -0.33,0.59 a 13.33,13.33 0 0 1 -3.15,3.85 14.46,14.46 0 0 1 -4.43,2.45 16.73,16.73 0 0 1 -5.42,0.87 14.16,14.16 0 0 1 -14.56,-11.56 h 42 l 0.09,-1 c 0.13,-1.47 0.2,-2.73 0.2,-3.73 a 31.29,31.29 0 0 0 -3.47,-14.53 z m -24.29,-2.4 a 15.77,15.77 0 0 1 6.71,1.41 13.7,13.7 0 0 1 5,4.08 16.56,16.56 0 0 1 2.59,5.08 h -28.56 a 14.89,14.89 0 0 1 4.8,-7.39 14.5,14.5 0 0 1 9.46,-3.21 z"
     id="path8"
     style="fill:#ffffff;fill-opacity:1" />
  <path
     class="cls-2"
     d="m 26.303076,102.28846 62.09,-85.329998 h -37.37 a 10.56,10.56 0 0 0 -8.64,4.48 l -31.749999,45.07 a 11.2,11.2 0 0 0 -0.09,12.79 z"
     id="path9"
     style="fill:url(#linearGradient10)" />
  <path
     class="cls-3"
     d="m 107.55308,34.478462 -9.190003,-13 a 10.56,10.56 0 0 0 -8.630001,-4.48 h -37.37 l 34,46.69 z"
     id="path10"
     style="fill:url(#linear-gradient-2)" />
  <polygon
     class="cls-4"
     points="169.41,399.01 198.08,399.01 169.41,359.61 140.74,399.01 "
     id="polygon10"
     inkscape:label="polygon10"
     style="fill:url(#linear-gradient-3)"
     transform="translate(-83.076924,-295.96154)" />
</svg>
