<?xml version="1.0" encoding="UTF-8" standalone="no"?>
<svg
   id="Layer_1"
   data-name="Layer 1"
   viewBox="0 0 518.38 150"
   version="1.1"
   sodipodi:docname="haskell.svg"
   width="518.38"
   height="150"
   inkscape:version="1.4.2 (ebf0e940, 2025-05-08)"
   xmlns:inkscape="http://www.inkscape.org/namespaces/inkscape"
   xmlns:sodipodi="http://sodipodi.sourceforge.net/DTD/sodipodi-0.dtd"
   xmlns="http://www.w3.org/2000/svg"
   xmlns:svg="http://www.w3.org/2000/svg"
   xmlns:rdf="http://www.w3.org/1999/02/22-rdf-syntax-ns#"
   xmlns:cc="http://creativecommons.org/ns#"
   xmlns:dc="http://purl.org/dc/elements/1.1/">
  <sodipodi:namedview
     id="namedview5"
     pagecolor="#ffffff"
     bordercolor="#000000"
     borderopacity="0.25"
     inkscape:showpageshadow="2"
     inkscape:pageopacity="0.0"
     inkscape:pagecheckerboard="true"
     inkscape:deskcolor="#d1d1d1"
     inkscape:zoom="1.6050002"
     inkscape:cx="259.19"
     inkscape:cy="115.57631"
     inkscape:window-width="2552"
     inkscape:window-height="1186"
     inkscape:window-x="0"
     inkscape:window-y="30"
     inkscape:window-maximized="0"
     inkscape:current-layer="Layer_1" />
  <defs
     id="defs1">
    <style
       id="style1">.cls-1{fill:#24588d;}.cls-2{fill:#fff;}</style>
  </defs>
  <title
     id="title1">Haskell-logo-color-topMargin</title>
  <rect
     class="cls-1"
     x="-53.333954"
     y="54.227329"
     width="89.480003"
     height="89.480003"
     transform="rotate(-45)"
     id="rect1" />
  <path
     class="cls-2"
     d="m 32.773053,107.45817 h 31.49 V 80.458172 h -31.49 z m 47.23,-62.999998 v 27 h -15.74 v 8.86 h 15.74 v 27.139998 h 15.74 V 44.458172 Z m -47.23,27 h 31.49 v -27 h -31.49 z"
     id="path1" />
  <polygon
     points="348.54,193.57 369.78,193.57 351.81,166.66 369.78,141.21 348.54,141.21 330.59,166.64 330.59,141.21 312.24,141.21 312.24,193.78 330.59,193.78 330.59,166.68 "
     id="polygon1"
     transform="translate(0.62305289,-92.211825)"
     style="fill:#333333" />
  <polygon
     points="180.21,174.86 167.89,174.86 167.89,193.78 149.52,193.78 149.52,141.18 167.89,141.18 167.89,159.15 180.21,159.15 180.21,141.18 198.6,141.18 198.6,193.78 180.21,193.78 "
     id="polygon2"
     transform="translate(0.62305289,-92.211825)"
     style="fill:#333333" />
  <path
     d="m 228.67305,83.128172 4.16,-20.53 h 1 l 4.28,20.53 z m 15.35,-34.16 h -21.3 l -18.16,52.599998 h 19.16 l 2,-6.779998 h 15.42 l 1.9,6.779998 h 19.22 z"
     id="path2"
     style="fill:#333333" />
  <polygon
     points="394.13,180.33 419.89,180.33 419.89,193.78 375.81,193.78 375.81,141.18 419.89,141.18 419.89,154.39 394.13,154.39 394.13,160.22 419.89,160.22 419.89,173.61 394.13,173.61 "
     id="polygon3"
     transform="translate(0.62305289,-92.211825)"
     style="fill:#333333" />
  <polygon
     points="445.65,177.18 469.57,177.18 469.57,193.78 427.32,193.78 427.32,141.18 445.65,141.18 "
     id="polygon4"
     transform="translate(0.62305289,-92.211825)"
     style="fill:#333333" />
  <polygon
     points="518.38,193.79 518.38,177.19 494.46,177.19 494.46,141.2 476.14,141.2 476.14,193.79 "
     id="polygon5"
     transform="translate(0.62305289,-92.211825)"
     style="fill:#333333" />
  <path
     d="m 265.62305,97.358172 5.9,-14.6 a 17.53,17.53 0 0 0 1.83,1.38 c 5.18,3.58 10.22,4.6 13,3.8 1.9,-0.58 2.7,-1.61 2.7,-2.78 0.08,-1.38 -1,-2.4 -3.57,-2.91 l -2.34,-0.37 -1.6,-0.29 -1.68,-0.34 a 16.71,16.71 0 0 1 -2.78,-0.81 c -9.71,-3.28 -13.14,-15.84 -5.11,-25.11 4.53,-5.11 11.89,-7.81 21.46,-6.87 a 35.55,35.55 0 0 1 11.9,3.66 c 0.24,0.11 0.14,0.09 0.14,0.09 l -5.1,13.21 -0.15,-0.09 a 21.73,21.73 0 0 0 -3.72,-1.9 c -4.75,-1.82 -8,-1.24 -9.2,0 a 2.08,2.08 0 0 0 -0.27,2.93 2,2 0 0 0 0.49,0.43 3.23,3.23 0 0 0 0.66,0.29 l 0.58,0.22 0.44,0.15 0.8,0.22 0.66,0.14 3.43,0.81 1.75,0.43 1.46,0.37 c 8.54,2.41 13,9.85 10.51,19.27 -2.77,10.37 -15.11,17.299998 -33,12.479998 a 38.71,38.71 0 0 1 -9.2,-3.789998"
     id="path5"
     style="fill:#333333" />
  <metadata
     id="metadata5">
    <rdf:RDF>
      <cc:Work
         rdf:about="">
        <dc:title>Haskell-logo-color-topMargin</dc:title>
      </cc:Work>
    </rdf:RDF>
  </metadata>
</svg>
