<?xml version="1.0" encoding="UTF-8" standalone="no"?>
<!-- Uploaded to: SVG Repo, www.svgrepo.com, Generator: SVG Repo Mixer Tools -->

<svg
   width="800"
   height="250"
   viewBox="-1350.225 -1735.25 3684.109 1151.2841"
   version="1.1"
   id="svg10"
   sodipodi:docname="yamaha-motors.svg"
   inkscape:version="1.4.2 (ebf0e940, 2025-05-08)"
   xmlns:inkscape="http://www.inkscape.org/namespaces/inkscape"
   xmlns:sodipodi="http://sodipodi.sourceforge.net/DTD/sodipodi-0.dtd"
   xmlns="http://www.w3.org/2000/svg"
   xmlns:svg="http://www.w3.org/2000/svg">
  <defs
     id="defs10" />
  <sodipodi:namedview
     id="namedview10"
     pagecolor="#ffffff"
     bordercolor="#000000"
     borderopacity="0.25"
     inkscape:showpageshadow="2"
     inkscape:pageopacity="0.0"
     inkscape:pagecheckerboard="0"
     inkscape:deskcolor="#d1d1d1"
     inkscape:zoom="1.04"
     inkscape:cx="400"
     inkscape:cy="399.51923"
     inkscape:window-width="1952"
     inkscape:window-height="1186"
     inkscape:window-x="21"
     inkscape:window-y="66"
     inkscape:window-maximized="0"
     inkscape:current-layer="svg10" />
  <radialGradient
     id="a"
     cx="-5080.8979"
     cy="2814.8379"
     r="400.01001"
     gradientTransform="matrix(1.3475,0,0,-1.3475,5755.38,2449.4539)"
     gradientUnits="userSpaceOnUse">
    <stop
       offset="0"
       stop-color="#fd9196"
       id="stop1" />
    <stop
       offset="1"
       stop-color="#f30713"
       id="stop2" />
  </radialGradient>
  <path
     fill="url(#a)"
     d="m -950.231,-1555.0088 c -220.808,0 -399.994,179.1866 -399.994,399.9953 0,220.80846 179.198,400.00745 399.994,400.00745 220.82,0 399.994,-179.19799 399.994,-400.00745 0,-220.8087 -179.174,-399.9953 -399.994,-399.9953 z"
     id="path2"
     style="fill:url(#a)" />
  <path
     opacity="0.66"
     d="m -948.877,-1529.1187 c -211.4,0 -382.956,171.5436 -382.956,382.9692 0,211.40046 171.556,383.07644 382.956,383.07644 211.412,0 383.089,-171.66398 383.089,-383.07644 0,-211.4246 -171.677,-382.9692 -383.089,-382.9692 z m 0.121,8.9 c 2.225,0 4.523,0.701 6.312,1.982 1.983,1.403 3.422,3.3741 4.22,5.6111 v 0.121 l 0.109,0.121 12.771,46.3381 c 166.078,12.056 297.281,150.7445 297.281,319.895 0,49.9171 -11.452,97.2473 -31.827,139.4014 l 32.879,33.12101 0.121,0.121 0.121,0.108 c 1.632,1.89807 2.491,4.10007 2.685,6.33707 0.206,2.249 -0.218,4.61797 -1.415,6.64997 a 10.963,10.963 0 0 1 -5.03,4.57 c -2.165,0.992 -4.521,1.232 -6.796,0.811 h -0.339 l -45.177,-11.81297 c -57.694,85.34993 -155.389,141.50696 -266.035,141.50696 -110.634,0 -208.256,-56.15703 -265.913,-141.50596 l -45.044,11.94597 h -0.363 c -2.527,0.461 -4.837,-0.048 -6.784,-0.942 a 11.145,11.145 0 0 1 -5.031,-4.57 c -1.1,-1.911 -1.632,-4.29297 -1.402,-6.52897 0.218,-2.249 1.052,-4.427 2.696,-6.33807 l 0.109,-0.119 0.121,-0.109 32.771,-33.12101 c -20.412,-42.2021 -31.827,-89.5453 -31.827,-139.5224 0,-169.1975 131.215,-307.946 297.389,-319.895 l 12.54,-46.2181 0.109,-0.242 v -0.121 a 11.543,11.543 0 0 1 4.22,-5.6111 c 2.018,-1.428 4.292,-1.984 6.529,-1.984 z m 0,4.6681 c -1.354,0 -2.757,0.387 -3.87,1.185 a 6.755,6.755 0 0 0 -2.442,3.277 l -27.861,102.9913 c -0.714,2.007 -1.017,4.426 -0.363,6.444 0.665,2.008 1.886,3.604 3.64,4.802 4.994,3.445 6.881,9.951 9.239,16.2641 2.346,6.312 2.733,11.742 1.052,18.271 -1.693,6.5191 -5.429,12.4551 -10.544,16.8461 -9.189,7.872 -17.438,17.376 -22.577,28.5501 -5.139,11.186 -6.905,23.1451 -6.905,35.2371 v 29.7121 l -143.96,-83.0873 -15.926,27.3771 159.886,92.2293 v 33.4721 l -28.792,16.628 -159.875,-92.3512 -15.925,27.631 143.96,83.1013 -25.757,14.873 c -10.472,6.021 -19.819,13.5931 -26.917,23.6291 -7.11,10.049 -11.367,21.9471 -13.58,33.8221 -1.246,6.627 -4.426,12.8431 -9.251,17.5591 -4.801,4.716 -9.747,6.953 -16.397,8.064 -6.626,1.102 -13.108,2.951 -18.598,0.363 -1.898,-0.895 -4.002,-1.161 -6.07,-0.714 -2.068,0.424 -4.124,1.561 -5.514,3.156 l -75.01,75.96518 c -0.895,1.016 -1.522,2.395 -1.645,3.749 -0.133,1.354 0.146,2.562 0.822,3.74797 0.677,1.173 1.681,2.236 2.927,2.806 a 6.656,6.656 0 0 0 3.966,0.472 l 103.233,-27.39001 c 2.08,-0.362 4.208,-1.354 5.611,-2.926 1.415,-1.57197 2.297,-3.50697 2.467,-5.61097 0.483,-6.06907 5.188,-10.83507 9.48,-16.03407 4.305,-5.176 8.852,-8.271 15.333,-10.072 6.494,-1.803 13.423,-1.402 19.795,0.834 11.403,4.015 23.798,6.288 36.036,5.15 12.262,-1.137 23.483,-5.55 33.943,-11.597 l 25.757,-14.8861 v 166.22318 h 31.729 v -184.45818 l 28.901,-16.7351 28.804,16.6141 v 184.57918 h 31.815 v -166.22218 l 25.757,14.8861 c 10.472,6.034 21.694,10.46 33.943,11.597 12.262,1.125 24.645,-1.28 36.048,-5.296 6.36,-2.226 13.411,-2.491 19.892,-0.701 6.481,1.813 10.811,4.909 15.091,10.062 4.281,5.199 9.118,9.867 9.589,15.91407 0.181,2.104 1.052,4.038 2.467,5.62297 1.415,1.584 3.422,2.89 5.502,3.275 l 103.342,27.05201 a 6.72,6.72 0 0 0 3.979,-0.459 c 1.245,-0.568 2.237,-1.524 2.914,-2.697 a 6.46,6.46 0 0 0 0.822,-3.86897 c -0.133,-1.354 -0.641,-2.721 -1.536,-3.761 l -75.263,-75.71118 c -1.367,-1.597 -3.326,-2.95 -5.381,-3.387 -2.08,-0.436 -4.185,-0.218 -6.083,0.701 -5.502,2.601 -11.959,0.871 -18.599,-0.242 -6.65,-1.111 -11.597,-3.458 -16.396,-8.174 -4.813,-4.739 -8.005,-10.9561 -9.25,-17.5591 -2.213,-11.923 -6.337,-23.7981 -13.447,-33.8351 -7.122,-10.062 -16.675,-17.4851 -27.159,-23.5081 l -25.624,-14.873 143.96,-83.1013 -15.914,-27.498 -159.874,92.3382 -28.805,-16.614 v -33.4721 l 159.887,-92.2403 -15.923,-27.4991 -143.961,83.0993 v -29.7231 c 0,-12.104 -1.874,-24.0531 -7.001,-35.2371 -5.151,-11.1741 -13.422,-20.6781 -22.601,-28.5501 -5.115,-4.391 -8.839,-10.327 -10.533,-16.8461 -1.681,-6.518 -1.185,-11.959 1.161,-18.271 2.37,-6.3001 4.002,-12.8301 9.021,-16.2641 1.729,-1.209 3.096,-2.793 3.736,-4.802 0.665,-2.007 0.713,-4.438 0,-6.444 l -28.32,-102.9913 c -0.448,-1.294 -1.232,-2.491 -2.334,-3.277 -1.076,-0.799 -2.358,-1.186 -3.724,-1.186 z m 0,199.0906 c 7.546,0 15.019,3.096 20.364,8.44 5.357,5.345 8.44,12.817 8.44,20.363 v 54.0772 l -28.804,16.6151 -28.901,-16.7361 v -53.9572 c 0,-7.546 3.083,-15.007 8.417,-20.363 5.344,-5.355 12.926,-8.439 20.484,-8.439 z m 0.121,136.1254 28.683,16.627 v 33.4601 l -28.683,16.6271 -29.022,-16.7481 v -33.2431 z m -89.533,51.7431 28.792,16.6151 v 33.4721 l -46.689,26.9181 c -6.542,3.772 -14.583,4.765 -21.899,2.817 -7.304,-1.972 -13.761,-6.93 -17.546,-13.458 -3.773,-6.5301 -4.764,-14.5841 -2.805,-21.8891 1.959,-7.328 6.796,-13.6771 13.35,-17.4381 z m 178.944,0 46.701,26.9181 c 6.53,3.772 11.488,10.1221 13.459,17.4381 1.971,7.305 0.858,15.454 -2.927,21.9961 -3.771,6.519 -10.267,11.379 -17.558,13.338 -7.304,1.936 -15.225,0.943 -21.767,-2.806 l -46.822,-27.0381 v -33.2551 z"
     id="path3" />
  <radialGradient
     id="b"
     cx="-4371.3462"
     cy="1683.944"
     r="574.68103"
     gradientTransform="matrix(1.1559075,-1.1559075,-1.0475787,-1.0475787,-5989.3265,-4504.0245)"
     gradientUnits="userSpaceOnUse">
    <stop
       offset=".048"
       stop-color="#e4ebee"
       id="stop3" />
    <stop
       offset=".272"
       stop-color="#f5f8f9"
       id="stop4" />
    <stop
       offset=".467"
       stop-color="#ffffff"
       id="stop5" />
    <stop
       offset=".752"
       stop-color="#bfc1c3"
       id="stop6" />
    <stop
       offset=".867"
       stop-color="#dce0e6"
       id="stop7" />
    <stop
       offset=".905"
       stop-color="#e2e6ed"
       id="stop8" />
    <stop
       offset="1"
       stop-color="#bcbec0"
       id="stop9" />
  </radialGradient>
  <path
     fill="url(#b)"
     d="m -950.268,-1538.0067 c -211.412,0 -382.956,171.5315 -382.956,382.9572 0,211.42539 171.544,383.08944 382.956,383.08944 211.424,0 383.064,-171.66405 383.064,-383.08944 10e-4,-211.4257 -171.651,-382.9572 -383.064,-382.9572 z m 0.109,8.888 c 2.213,0 4.522,0.701 6.312,1.995 a 11.556,11.556 0 0 1 4.208,5.623 v 0.109 l 0.121,0.133 12.758,46.3382 c 166.078,12.044 297.292,150.7444 297.292,319.87 0,49.9181 -11.452,97.2243 -31.827,139.4014 l 32.891,33.13404 0.109,0.108 0.121,0.12 c 1.621,1.89797 2.479,4.08797 2.685,6.31197 0.23,2.262 -0.218,4.63207 -1.391,6.66307 a 11.088,11.088 0 0 1 -5.03,4.57 11.096,11.096 0 0 1 -6.784,0.822 h -0.363 l -45.177,-11.82707 c -57.681,85.34903 -155.388,141.50603 -266.021,141.50603 -110.658,0 -208.269,-56.157 -265.938,-141.50603 l -45.044,11.94707 h -0.363 c -2.527,0.46 -4.837,-0.048 -6.784,-0.942 -2.152,-0.992 -3.895,-2.588 -5.03,-4.57 -1.101,-1.888 -1.633,-4.28107 -1.391,-6.53007 0.193,-2.237 1.052,-4.426 2.685,-6.33597 l 0.121,-0.109 0.121,-0.12 32.771,-33.12204 c -20.424,-42.1891 -31.839,-89.5443 -31.839,-139.5214 0,-169.2096 131.239,-307.947 297.414,-319.87 l 12.516,-46.2422 0.109,-0.242 v -0.108 c 0.798,-2.262 2.237,-4.221 4.208,-5.623 2.017,-1.439 4.315,-1.983 6.54,-1.983 z m 0,4.68 c -1.367,0 -2.757,0.387 -3.87,1.173 a 6.728,6.728 0 0 0 -2.442,3.276 l -27.861,102.9924 c -0.702,2.007 -1.004,4.329 -0.351,6.336 0.665,2.007 1.898,3.712 3.627,4.897 5.006,3.458 6.881,9.952 9.251,16.275 2.358,6.3011 2.733,11.7421 1.052,18.2611 -1.668,6.529 -5.538,12.4671 -10.653,16.8451 -9.178,7.872 -17.329,17.389 -22.468,28.55 -5.151,11.1871 -6.893,23.1461 -6.893,35.2502 v 29.723 l -143.973,-83.1002 -15.914,27.3771 159.886,92.2292 v 33.4601 l -28.804,16.6271 -159.888,-92.3493 -15.926,27.4991 143.961,83.2203 -25.745,14.874 c -10.472,6.034 -19.928,13.593 -27.039,23.6301 -7.123,10.035 -11.246,21.936 -13.458,33.8351 -1.246,6.602 -4.438,12.816 -9.251,17.558 -4.813,4.7041 -9.734,6.9411 -16.385,8.0541 -6.639,1.112 -13.132,2.963 -18.61,0.352 a 9.379,9.379 0 0 0 -6.095,-0.689 c -2.068,0.411 -4.124,1.523 -5.502,3.146 l -75.13,75.95211 c -0.896,1.039 -1.403,2.405 -1.536,3.761 -0.145,1.343 0.145,2.562 0.81,3.74907 a 6.806,6.806 0 0 0 2.927,2.709 c 1.245,0.556 2.648,0.798 3.99,0.567 l 103.221,-27.39001 c 2.08,-0.387 4.208,-1.343 5.623,-2.927 1.391,-1.58407 2.285,-3.50707 2.467,-5.61007 0.472,-6.07 5.175,-10.848 9.468,-16.035 4.293,-5.212 8.84,-8.2711 15.333,-10.061 6.494,-1.813 13.423,-1.402 19.771,0.8219 11.415,4.0031 23.798,6.2871 36.06,5.1271 12.237,-1.124 23.472,-5.5151 33.932,-11.5621 l 25.757,-14.886 v 166.19811 h 31.718 v -184.44621 l 28.913,-16.736 28.792,16.615 v 184.56621 h 31.839 v -166.19811 l 25.624,14.886 c 10.484,6.022 21.803,10.4381 34.052,11.5621 12.262,1.16 24.646,-1.245 36.061,-5.2611 6.348,-2.2259 13.397,-2.6239 19.892,-0.8109 6.469,1.8129 10.811,4.97 15.103,10.182 4.269,5.188 9.106,9.868 9.578,15.914 0.181,2.104 1.052,4.039 2.467,5.62307 1.403,1.584 3.434,2.866 5.502,3.277 l 103.342,27.05101 c 1.342,0.241 2.757,0.097 3.99,-0.46 a 6.636,6.636 0 0 0 2.926,-2.721 c 0.665,-1.16107 0.931,-2.49107 0.81,-3.85707 -0.133,-1.366 -0.641,-2.721 -1.523,-3.749 l -75.263,-75.72311 c -1.367,-1.608 -3.326,-2.963 -5.381,-3.374 -2.068,-0.437 -4.184,-0.229 -6.095,0.688 -5.49,2.612 -11.959,0.884 -18.598,-0.229 -6.651,-1.137 -11.572,-3.482 -16.385,-8.1991 -4.812,-4.716 -7.993,-10.932 -9.25,-17.534 -2.225,-11.9231 -6.349,-23.8201 -13.459,-33.8341 -7.11,-10.0621 -16.675,-17.4851 -27.147,-23.5311 l -25.745,-14.874 144.07,-83.2083 -15.926,-27.3911 -159.875,92.3513 -28.804,-16.6271 v -33.4721 l 159.886,-92.2172 -15.914,-27.5101 -143.96,83.0992 v -29.735 c 0,-12.0921 -1.862,-24.0521 -7.014,-35.2362 -5.151,-11.173 -13.411,-20.678 -22.589,-28.55 -5.127,-4.391 -8.852,-10.3151 -10.532,-16.8461 -1.681,-6.529 -1.197,-11.946 1.161,-18.2601 2.358,-6.312 4.015,-12.83 9.021,-16.276 1.741,-1.196 3.083,-2.901 3.749,-4.909 0.665,-1.995 0.702,-4.329 0,-6.312 l -28.32,-103.0034 c -0.459,-1.282 -1.354,-2.491 -2.455,-3.29 a 5.998,5.998 0 0 0 -3.603,-1.15 z m 0,199.0906 c 7.558,0 15.006,3.0831 20.364,8.4291 5.356,5.357 8.428,12.818 8.428,20.375 v 54.0662 l -28.792,16.627 -28.913,-16.749 v -53.9572 c 0,-7.559 3.083,-15.006 8.428,-20.363 5.357,-5.357 12.927,-8.4281 20.485,-8.4281 z m 0,136.1254 28.792,16.6141 v 33.4831 l -28.671,16.6041 -29.021,-16.7261 v -33.2401 z m -89.532,51.6222 28.901,16.748 v 33.4602 l -46.701,26.9301 c -6.542,3.772 -14.572,4.74 -21.888,2.806 -7.316,-1.959 -13.785,-6.9171 -17.558,-13.4591 -3.785,-6.528 -4.776,-14.596 -2.817,-21.8751 1.959,-7.328 6.796,-13.785 13.35,-17.559 z m 178.956,0 46.81,27.0511 c 6.554,3.772 11.5,10.108 13.459,17.426 1.971,7.3151 0.737,15.4661 -3.047,21.9961 -3.773,6.53 -10.134,11.3911 -17.45,13.3501 -7.292,1.937 -15.333,0.943 -21.875,-2.829 l -46.713,-26.9181 v -33.4722 z"
     id="path9"
     style="fill:url(#b)" />
  <path
     fill="#f30711"
     d="m -484.116,-1491.0876 147.528,450.4804 v 220.03415 h 145.557 v -220.03415 l 139.208,-450.4804 h -131.578 l -82.664,292.7349 -80.294,-292.7349 z m 908.601,0 v 670.51555 h 121.07 v -434.84475 l 69.387,434.84575 h 91.418 l 69.243,-434.84575 v 434.84575 h 123.344 v -670.51555 h -184.87 l -52.736,318.963 -50.812,-318.963 z m 1036.058,0 v 670.51555 h 134.951 v -282.60035 h 114.951 v 282.60135 h 131.735 v -670.51555 h -131.735 v 266.7478 h -114.951 v -266.7488 z m 573.363,-0.133 -116.607,670.62455 h 131.615 l 25.949,-163.81601 h 100.852 l 25.418,163.81601 h 132.752 L 2217.24,-1491.2206 Z m 92.484,147.0685 34.307,242.6107 h -70.064 z m -1037.618,-147.0685 -116.607,670.62455 h 131.613 l 25.951,-163.81601 h 100.862 l 25.406,163.81601 h 132.763 l -116.644,-670.62455 z m 92.484,147.0685 34.318,242.6107 h -70.076 z M 53.26,-1491.2206 -63.36,-820.59605 H 68.255 l 25.938,-163.81601 h 100.863 l 25.406,163.81601 H 353.225 L 236.594,-1491.2206 Z m 92.471,147.0685 34.33,242.6107 h -70.088 z"
     id="path10" />
</svg>
